# xmcd
#
# Track frame offsets:
#	180
#	11810
#	26917
#	40483
#	55472
#	68208
#	85289
#	97844
#	111676
#	123698
#
# Disc length: 1860 seconds
#
# Revision: 1
# Processed by: cddbd v1.5.2PL0 Copyright (c) Steve Scherf et al.
# Submitted via: audiograbber 1.83.01
#
DISCID=9307420a
DTITLE=Hill Topper Music Group - Radio Round Country Variety
DYEAR=2007
DGENRE=Country
TTITLE0=Housekeeper - Jeff Treence Band
TTITLE1=Homegrown Tomatoes  - Steve Free
TTITLE2=Tough Guys  - Steve Zuwala
TTITLE3=I Love How You Love Me  - Vickie Cross
TTITLE4=Fat Women  - Wild Card 
TTITLE5=The Bottoms  - Billy Barbs
TTITLE6=Momma´s Hillbilly Boy  - Ron Thompson
TTITLE7=She Don´t Drink, She Don´t Smoke  - Ernie Ashworth
TTITLE8=Glory, Glory  - Joanne Cash
TTITLE9=Chrildren Of The Street  - Robert Shields
EXTD=
EXTT0=
EXTT1=
EXTT2=
EXTT3=
EXTT4=
EXTT5=
EXTT6=
EXTT7=
EXTT8=
EXTT9=
PLAYORDER=
